<svg xmlns="http://www.w3.org/2000/svg" version="1.1" width="74" height="38">style="background-color:rgb(none)">
<polygon id="Analytical" points="54,10 59,10 59,5 54,5 54,10" stroke="rgb(none)" stroke-width="0.0" fill="none" />
<polygon id="Context" points="60,10 65,10 65,5 60,5 60,10" stroke="rgb(none)" stroke-width="0.0" fill="none" />
<polygon id="Ideation" points="60,16 65,16 65,11 60,11 60,16" stroke="rgb(none)" stroke-width="0.0" fill="none" />
<polygon id="Futuristic" points="54,16 59,16 59,11 54,11 54,16" stroke="rgb(none)" stroke-width="0.0" fill="none" />
<polygon id="Intellection" points="60,22 65,22 65,17 60,17 60,22" stroke="rgb(none)" stroke-width="0.0" fill="none" />
<polygon id="Input" points="54,22 59,22 59,17 54,17 54,22" stroke="rgb(none)" stroke-width="0.0" fill="none" />
<polygon id="Strategic" points="60,28 65,28 65,23 60,23 60,28" stroke="rgb(none)" stroke-width="0.0" fill="none" />
<polygon id="Learner" points="54,28 59,28 59,23 54,23 54,28" stroke="rgb(none)" stroke-width="0.0" fill="none" />
<polygon id="Adaptability" points="39,10 44,10 44,5 39,5 39,10" stroke="rgb(none)" stroke-width="0.0" fill="none" />
<polygon id="Connectedness" points="45,10 50,10 50,5 45,5 45,10" stroke="rgb(none)" stroke-width="0.0" fill="none" />
<polygon id="Empathy" points="45,16 50,16 50,11 45,11 45,16" stroke="rgb(none)" stroke-width="0.0" fill="none" />
<polygon id="Developer" points="39,16 44,16 44,11 39,11 39,16" stroke="rgb(none)" stroke-width="0.0" fill="none" />
<polygon id="Includer" points="45,22 50,22 50,17 45,17 45,22" stroke="rgb(none)" stroke-width="0.0" fill="none" />
<polygon id="Harmony" points="39,22 44,22 44,17 39,17 39,22" stroke="rgb(none)" stroke-width="0.0" fill="none" />
<polygon id="Positivity" points="45,28 50,28 50,23 45,23 45,28" stroke="rgb(none)" stroke-width="0.0" fill="none" />
<polygon id="Individualization" points="39,28 44,28 44,23 39,23 39,28" stroke="rgb(none)" stroke-width="0.0" fill="none" />
<polygon id="Relator" points="39,34 44,34 44,29 39,29 39,34" stroke="rgb(none)" stroke-width="0.0" fill="none" />
<polygon id="Significance" points="24,28 29,28 29,23 24,23 24,28" stroke="rgb(none)" stroke-width="0.0" fill="none" />
<polygon id="Woo" points="30,28 35,28 35,23 30,23 30,28" stroke="rgb(none)" stroke-width="0.0" fill="none" />
<polygon id="Maximizer" points="24,22 29,22 29,17 24,17 24,22" stroke="rgb(none)" stroke-width="0.0" fill="none" />
<polygon id="Self-Assurance" points="30,22 35,22 35,17 30,17 30,22" stroke="rgb(none)" stroke-width="0.0" fill="none" />
<polygon id="Communication" points="24,16 29,16 29,11 24,11 24,16" stroke="rgb(none)" stroke-width="0.0" fill="none" />
<polygon id="Competition" points="30,16 35,16 35,11 30,11 30,16" stroke="rgb(none)" stroke-width="0.0" fill="none" />
<polygon id="Command" points="30,10 35,10 35,5 30,5 30,10" stroke="rgb(none)" stroke-width="0.0" fill="none" />
<polygon id="Activator" points="24,10 29,10 29,5 24,5 24,10" stroke="rgb(none)" stroke-width="0.0" fill="none" />
<polygon id="Restorative" points="8,34 13,34 13,29 8,29 8,34" stroke="rgb(none)" stroke-width="0.0" fill="none" />
<polygon id="Focus" points="8,28 13,28 13,23 8,23 8,28" stroke="rgb(none)" stroke-width="0.0" fill="none" />
<polygon id="Responsibility" points="14,28 19,28 19,23 14,23 14,28" stroke="rgb(none)" stroke-width="0.0" fill="none" />
<polygon id="Deliberative" points="8,22 13,22 13,17 8,17 8,22" stroke="rgb(none)" stroke-width="0.0" fill="none" />
<polygon id="Discipline" points="14,22 19,22 19,17 14,17 14,22" stroke="rgb(none)" stroke-width="0.0" fill="none" />
<polygon id="Belief" points="8,16 13,16 13,11 8,11 8,16" stroke="rgb(none)" stroke-width="0.0" fill="none" />
<polygon id="Consistency" points="14,16 19,16 19,11 14,11 14,16" stroke="rgb(none)" stroke-width="0.0" fill="none" />
<polygon id="Arranger" points="14,10 19,10 19,5 14,5 14,10" stroke="rgb(none)" stroke-width="0.0" fill="none" />
<polygon id="Achiever" points="8,10 13,10 13,5 8,5 8,10" stroke="rgb(none)" stroke-width="0.0" fill="none" />
<circle cx="30" cy="5" r="" stroke-width="1.0" stroke="rgb(0,0,0)" fill="none" />
<path d="M 30,5 A .,. 0 0 0 30,5" stroke-width="1.0" stroke="rgb(0,0,0)" fill="none" />
<line x1="30" y1="5" x2="30" y2="5" stroke-width="1.0" stroke="rgb(0,0,0)" />
<polyline points="30,5" stroke-width="1.0" stroke="rgb(0,0,0)" fill="none" />
<circle cx="30" cy="5" r="" stroke-width="6.0" stroke="rgb(0,0,0)" fill="none" />
<path d="M 30,5 A .,. 0 0 0 30,5" stroke-width="6.0" stroke="rgb(0,0,0)" fill="none" />
<line x1="30" y1="5" x2="30" y2="5" stroke-width="6.0" stroke="rgb(0,0,0)" />
<polyline points="30,5" stroke-width="6.0" stroke="rgb(0,0,0)" fill="none" />
<circle cx="30" cy="5" r="" stroke-width="1.5" stroke="rgb(0,0,0)" fill="none" />
<path d="M 30,5 A .,. 0 0 0 30,5" stroke-width="1.5" stroke="rgb(0,0,0)" fill="none" />
<line x1="30" y1="5" x2="30" y2="5" stroke-width="1.5" stroke="rgb(0,0,0)" />
<polyline points="30,5" stroke-width="1.5" stroke="rgb(0,0,0)" fill="none" />
<circle cx="30" cy="5" r="" stroke-width="1.0" stroke="rgb(0,0,0)" fill="none" />
<path d="M 30,5 A .,. 0 0 0 30,5" stroke-width="1.0" stroke="rgb(0,0,0)" fill="none" />
<line x1="30" y1="5" x2="30" y2="5" stroke-width="1.0" stroke="rgb(0,0,0)" />
<polyline points="30,5" stroke-width="1.0" stroke="rgb(0,0,0)" fill="none" />
</svg>
