<svg xmlns="http://www.w3.org/2000/svg" version="1.1" width="735" height="377">style="background-color:rgb(none)">
<polygon id="Analytical" points="540,94 590,94 590,44 540,44 540,94" stroke="rgb(none)" stroke-width="0.0" fill="none" />
<polygon id="Context" points="600,94 650,94 650,44 600,44 600,94" stroke="rgb(none)" stroke-width="0.0" fill="none" />
<polygon id="Ideation" points="600,154 650,154 650,104 600,104 600,154" stroke="rgb(none)" stroke-width="0.0" fill="none" />
<polygon id="Futuristic" points="540,154 590,154 590,104 540,104 540,154" stroke="rgb(none)" stroke-width="0.0" fill="none" />
<polygon id="Intellection" points="600,214 650,214 650,164 600,164 600,214" stroke="rgb(none)" stroke-width="0.0" fill="none" />
<polygon id="Input" points="540,214 590,214 590,164 540,164 540,214" stroke="rgb(none)" stroke-width="0.0" fill="none" />
<polygon id="Strategic" points="600,274 650,274 650,224 600,224 600,274" stroke="rgb(none)" stroke-width="0.0" fill="none" />
<polygon id="Learner" points="540,274 590,274 590,224 540,224 540,274" stroke="rgb(none)" stroke-width="0.0" fill="none" />
<polygon id="Adaptability" points="388,94 438,94 438,44 388,44 388,94" stroke="rgb(none)" stroke-width="0.0" fill="none" />
<polygon id="Connectedness" points="448,94 498,94 498,44 448,44 448,94" stroke="rgb(none)" stroke-width="0.0" fill="none" />
<polygon id="Empathy" points="448,154 498,154 498,104 448,104 448,154" stroke="rgb(none)" stroke-width="0.0" fill="none" />
<polygon id="Developer" points="388,154 438,154 438,104 388,104 388,154" stroke="rgb(none)" stroke-width="0.0" fill="none" />
<polygon id="Includer" points="448,214 498,214 498,164 448,164 448,214" stroke="rgb(none)" stroke-width="0.0" fill="none" />
<polygon id="Harmony" points="388,214 438,214 438,164 388,164 388,214" stroke="rgb(none)" stroke-width="0.0" fill="none" />
<polygon id="Positivity" points="448,274 498,274 498,224 448,224 448,274" stroke="rgb(none)" stroke-width="0.0" fill="none" />
<polygon id="Individualization" points="388,274 438,274 438,224 388,224 388,274" stroke="rgb(none)" stroke-width="0.0" fill="none" />
<polygon id="Relator" points="388,334 438,334 438,284 388,284 388,334" stroke="rgb(none)" stroke-width="0.0" fill="none" />
<polygon id="Significance" points="236,274 286,274 286,224 236,224 236,274" stroke="rgb(none)" stroke-width="0.0" fill="none" />
<polygon id="Woo" points="296,274 346,274 346,224 296,224 296,274" stroke="rgb(none)" stroke-width="0.0" fill="none" />
<polygon id="Maximizer" points="236,214 286,214 286,164 236,164 236,214" stroke="rgb(none)" stroke-width="0.0" fill="none" />
<polygon id="Self-Assurance" points="296,214 346,214 346,164 296,164 296,214" stroke="rgb(none)" stroke-width="0.0" fill="none" />
<polygon id="Communication" points="236,154 286,154 286,104 236,104 236,154" stroke="rgb(none)" stroke-width="0.0" fill="none" />
<polygon id="Competition" points="296,154 346,154 346,104 296,104 296,154" stroke="rgb(none)" stroke-width="0.0" fill="none" />
<polygon id="Command" points="296,94 346,94 346,44 296,44 296,94" stroke="rgb(none)" stroke-width="0.0" fill="none" />
<polygon id="Activator" points="236,94 286,94 286,44 236,44 236,94" stroke="rgb(none)" stroke-width="0.0" fill="none" />
<polygon id="Restorative" points="84,334 134,334 134,284 84,284 84,334" stroke="rgb(none)" stroke-width="0.0" fill="none" />
<polygon id="Focus" points="84,274 134,274 134,224 84,224 84,274" stroke="rgb(none)" stroke-width="0.0" fill="none" />
<polygon id="Responsibility" points="144,274 194,274 194,224 144,224 144,274" stroke="rgb(none)" stroke-width="0.0" fill="none" />
<polygon id="Deliberative" points="84,214 134,214 134,164 84,164 84,214" stroke="rgb(none)" stroke-width="0.0" fill="none" />
<polygon id="Discipline" points="144,214 194,214 194,164 144,164 144,214" stroke="rgb(none)" stroke-width="0.0" fill="none" />
<polygon id="Belief" points="84,154 134,154 134,104 84,104 84,154" stroke="rgb(none)" stroke-width="0.0" fill="none" />
<polygon id="Consistency" points="144,154 194,154 194,104 144,104 144,154" stroke="rgb(none)" stroke-width="0.0" fill="none" />
<polygon id="Arranger" points="144,94 194,94 194,44 144,44 144,94" stroke="rgb(none)" stroke-width="0.0" fill="none" />
<polygon id="Achiever" points="84,94 134,94 134,44 84,44 84,94" stroke="rgb(none)" stroke-width="0.0" fill="none" />
<circle cx="424" cy="305" r="" stroke-width="1.0" stroke="rgb(0,0,0)" fill="none" />
<path d="M 424,305 A .,. 0 0 0 424,305" stroke-width="1.0" stroke="rgb(0,0,0)" fill="none" />
<line x1="424" y1="305" x2="424" y2="305" stroke-width="1.0" stroke="rgb(0,0,0)" />
<polyline points="424,305" stroke-width="1.0" stroke="rgb(0,0,0)" fill="none" />
<circle cx="424" cy="305" r="" stroke-width="6.0" stroke="rgb(0,0,0)" fill="none" />
<path d="M 424,305 A .,. 0 0 0 424,305" stroke-width="6.0" stroke="rgb(0,0,0)" fill="none" />
<line x1="424" y1="305" x2="424" y2="305" stroke-width="6.0" stroke="rgb(0,0,0)" />
<polyline points="424,305" stroke-width="6.0" stroke="rgb(0,0,0)" fill="none" />
<circle cx="424" cy="305" r="" stroke-width="1.5" stroke="rgb(0,0,0)" fill="none" />
<path d="M 424,305 A .,. 0 0 0 424,305" stroke-width="1.5" stroke="rgb(0,0,0)" fill="none" />
<line x1="424" y1="305" x2="424" y2="305" stroke-width="1.5" stroke="rgb(0,0,0)" />
<polyline points="424,305" stroke-width="1.5" stroke="rgb(0,0,0)" fill="none" />
<circle cx="424" cy="305" r="" stroke-width="1.0" stroke="rgb(0,0,0)" fill="none" />
<path d="M 424,305 A .,. 0 0 0 424,305" stroke-width="1.0" stroke="rgb(0,0,0)" fill="none" />
<line x1="424" y1="305" x2="424" y2="305" stroke-width="1.0" stroke="rgb(0,0,0)" />
<polyline points="424,305" stroke-width="1.0" stroke="rgb(0,0,0)" fill="none" />
</svg>
